<mxfile host="app.diagrams.net" agent="Mozilla/5.0 (Macintosh; Intel Mac OS X 10_15_7) AppleWebKit/537.36 (KHTML, like Gecko) Chrome/131.0.0.0 Safari/537.36" version="26.0.14">
  <diagram name="Page-1" id="4xoUDJcRbk22KNLd3KY5">
    <mxGraphModel dx="354" dy="207" grid="1" gridSize="10" guides="1" tooltips="1" connect="1" arrows="1" fold="1" page="1" pageScale="1" pageWidth="850" pageHeight="1100" math="0" shadow="0">
      <root>
        <mxCell id="0" />
        <mxCell id="1" parent="0" />
        <mxCell id="HlSkQMo-Pf87UodsOYhZ-3" value="" style="edgeStyle=orthogonalEdgeStyle;rounded=0;orthogonalLoop=1;jettySize=auto;html=1;" edge="1" parent="1" source="HlSkQMo-Pf87UodsOYhZ-1" target="HlSkQMo-Pf87UodsOYhZ-2">
          <mxGeometry relative="1" as="geometry" />
        </mxCell>
        <mxCell id="HlSkQMo-Pf87UodsOYhZ-1" value="&lt;div style=&quot;line-height: 90%;&quot;&gt;&lt;font style=&quot;font-size: 6px; line-height: 90%;&quot;&gt;1. General Requirements&lt;/font&gt;&lt;div&gt;&lt;font style=&quot;font-size: 6px; line-height: 90%;&quot;&gt;&lt;font&gt;2. Specific Requirements&lt;br&gt;3. Components Architecture&lt;br&gt;4. Data Enitities&lt;br&gt;5. Data API&lt;br&gt;6. Data Store&lt;br&gt;7. Infinite Scroll&lt;br&gt;8. Optimization&lt;br&gt;9. &lt;/font&gt;Accessibility&lt;/font&gt;&lt;/div&gt;&lt;/div&gt;" style="rounded=0;whiteSpace=wrap;html=1;align=left;shadow=0;" vertex="1" parent="1">
          <mxGeometry x="20" y="50" width="100" height="110" as="geometry" />
        </mxCell>
        <mxCell id="HlSkQMo-Pf87UodsOYhZ-2" value="&lt;font style=&quot;line-height: 100%;&quot;&gt;&lt;font style=&quot;font-size: 6px;&quot;&gt;General Reqs&lt;br&gt;1. Infinite Scrollable news feed where stories appears based on user subscriptions&lt;br&gt;2. User Can share the story&lt;br&gt;3. User can post the story and attach comments, links, images and videos&lt;br&gt;&lt;/font&gt;&lt;br&gt;&lt;/font&gt;" style="whiteSpace=wrap;html=1;align=left;rounded=0;shadow=0;" vertex="1" parent="1">
          <mxGeometry x="150" y="50" width="130" height="110" as="geometry" />
        </mxCell>
        <mxCell id="HlSkQMo-Pf87UodsOYhZ-4" value="&lt;font style=&quot;font-size: 6px; line-height: 70%;&quot;&gt;Specific reqs&lt;br&gt;1. We want the feature to range of device&lt;br&gt;2. We want the feature to be accessible for people with disabilities&lt;/font&gt;" style="rounded=0;whiteSpace=wrap;html=1;align=left;" vertex="1" parent="1">
          <mxGeometry x="150" y="170" width="130" height="70" as="geometry" />
        </mxCell>
        <mxCell id="HlSkQMo-Pf87UodsOYhZ-5" value="Requirements" style="text;html=1;align=center;verticalAlign=middle;resizable=0;points=[];autosize=1;strokeColor=none;fillColor=none;" vertex="1" parent="1">
          <mxGeometry x="150" y="20" width="100" height="30" as="geometry" />
        </mxCell>
        <mxCell id="HlSkQMo-Pf87UodsOYhZ-6" value="" style="rounded=0;whiteSpace=wrap;html=1;" vertex="1" parent="1">
          <mxGeometry x="300" y="50" width="180" height="110" as="geometry" />
        </mxCell>
        <mxCell id="HlSkQMo-Pf87UodsOYhZ-7" value="&lt;span style=&quot;line-height: 90%;&quot;&gt;&lt;font style=&quot;font-size: 6px;&quot;&gt;Avatar&lt;/font&gt;&lt;/span&gt;" style="ellipse;whiteSpace=wrap;html=1;aspect=fixed;align=center;verticalAlign=middle;" vertex="1" parent="1">
          <mxGeometry x="310" y="60" width="20" height="20" as="geometry" />
        </mxCell>
      </root>
    </mxGraphModel>
  </diagram>
</mxfile>
